<mxfile host="app.diagrams.net" modified="2024-07-04T19:54:14.391Z" agent="Mozilla/5.0 (Windows NT 10.0; Win64; x64) AppleWebKit/537.36 (KHTML, like Gecko) Chrome/123.0.0.0 Safari/537.36 OPR/109.0.0.0" etag="bGfmcbo1zEVAIAkdHwQL" version="24.6.4" type="device">
  <diagram name="Page-1" id="ukaXwPkFgM2Vrwzbpt4t">
    <mxGraphModel dx="2033" dy="1118" grid="1" gridSize="10" guides="1" tooltips="1" connect="1" arrows="1" fold="1" page="1" pageScale="1" pageWidth="827" pageHeight="1169" math="0" shadow="0">
      <root>
        <mxCell id="0" />
        <mxCell id="1" parent="0" />
        <mxCell id="0LGYDg_hTQESnCaPoSix-1" style="edgeStyle=orthogonalEdgeStyle;rounded=0;orthogonalLoop=1;jettySize=auto;html=1;entryX=0.5;entryY=0;entryDx=0;entryDy=0;" edge="1" parent="1" source="0LGYDg_hTQESnCaPoSix-2" target="0LGYDg_hTQESnCaPoSix-19">
          <mxGeometry relative="1" as="geometry" />
        </mxCell>
        <mxCell id="0LGYDg_hTQESnCaPoSix-2" value="THREAT ASSESSMENT" style="swimlane;whiteSpace=wrap;html=1;" vertex="1" parent="1">
          <mxGeometry x="42" y="140" width="744" height="340" as="geometry">
            <mxRectangle x="42" y="140" width="210" height="30" as="alternateBounds" />
          </mxGeometry>
        </mxCell>
        <mxCell id="0LGYDg_hTQESnCaPoSix-3" value="&lt;div&gt;- A single attack or several?&lt;/div&gt;&lt;div&gt;- Volumetry&lt;br&gt;- Source&lt;/div&gt;" style="shape=document;whiteSpace=wrap;html=1;boundedLbl=1;" vertex="1" parent="0LGYDg_hTQESnCaPoSix-2">
          <mxGeometry x="20" y="65" width="150" height="80" as="geometry" />
        </mxCell>
        <mxCell id="0LGYDg_hTQESnCaPoSix-4" value="- Ping of Death&lt;br&gt;- SYN flood&lt;br&gt;- UDP flood&lt;br&gt;- HTTP flood&lt;br&gt;- &quot;&lt;strong&gt;Slowloris&quot;&lt;br&gt;- etc.&lt;br&gt;&lt;br&gt;&lt;/strong&gt;" style="shape=document;whiteSpace=wrap;html=1;boundedLbl=1;" vertex="1" parent="0LGYDg_hTQESnCaPoSix-2">
          <mxGeometry x="38" y="160" width="120" height="150" as="geometry" />
        </mxCell>
        <mxCell id="0LGYDg_hTQESnCaPoSix-5" style="edgeStyle=orthogonalEdgeStyle;rounded=0;orthogonalLoop=1;jettySize=auto;html=1;entryX=1;entryY=0.5;entryDx=0;entryDy=0;" edge="1" parent="0LGYDg_hTQESnCaPoSix-2" source="0LGYDg_hTQESnCaPoSix-6" target="0LGYDg_hTQESnCaPoSix-10">
          <mxGeometry relative="1" as="geometry" />
        </mxCell>
        <mxCell id="0LGYDg_hTQESnCaPoSix-6" value="&lt;div&gt;- Critical service?&lt;/div&gt;&lt;div&gt;- Business impact?&lt;/div&gt;&lt;div&gt;- Shared server?&lt;/div&gt;" style="shape=document;whiteSpace=wrap;html=1;boundedLbl=1;" vertex="1" parent="0LGYDg_hTQESnCaPoSix-2">
          <mxGeometry x="588" y="150" width="120" height="80" as="geometry" />
        </mxCell>
        <mxCell id="0LGYDg_hTQESnCaPoSix-7" value="Identify the method" style="rounded=0;whiteSpace=wrap;html=1;" vertex="1" parent="0LGYDg_hTQESnCaPoSix-2">
          <mxGeometry x="228" y="180" width="120" height="60" as="geometry" />
        </mxCell>
        <mxCell id="0LGYDg_hTQESnCaPoSix-8" style="edgeStyle=orthogonalEdgeStyle;rounded=0;orthogonalLoop=1;jettySize=auto;html=1;entryX=0;entryY=0.5;entryDx=0;entryDy=0;" edge="1" parent="0LGYDg_hTQESnCaPoSix-2" source="0LGYDg_hTQESnCaPoSix-4" target="0LGYDg_hTQESnCaPoSix-7">
          <mxGeometry relative="1" as="geometry" />
        </mxCell>
        <mxCell id="0LGYDg_hTQESnCaPoSix-9" value="" style="edgeStyle=orthogonalEdgeStyle;rounded=0;orthogonalLoop=1;jettySize=auto;html=1;" edge="1" parent="0LGYDg_hTQESnCaPoSix-2" source="0LGYDg_hTQESnCaPoSix-10" target="0LGYDg_hTQESnCaPoSix-16">
          <mxGeometry relative="1" as="geometry" />
        </mxCell>
        <mxCell id="0LGYDg_hTQESnCaPoSix-10" value="Identify target service(s)" style="rounded=0;whiteSpace=wrap;html=1;" vertex="1" parent="0LGYDg_hTQESnCaPoSix-2">
          <mxGeometry x="408" y="160" width="120" height="60" as="geometry" />
        </mxCell>
        <mxCell id="0LGYDg_hTQESnCaPoSix-11" value="Traffic graph" style="rounded=0;whiteSpace=wrap;html=1;" vertex="1" parent="0LGYDg_hTQESnCaPoSix-2">
          <mxGeometry x="228" y="75" width="120" height="60" as="geometry" />
        </mxCell>
        <mxCell id="0LGYDg_hTQESnCaPoSix-12" style="edgeStyle=orthogonalEdgeStyle;rounded=0;orthogonalLoop=1;jettySize=auto;html=1;entryX=0;entryY=0.5;entryDx=0;entryDy=0;" edge="1" parent="0LGYDg_hTQESnCaPoSix-2" source="0LGYDg_hTQESnCaPoSix-3" target="0LGYDg_hTQESnCaPoSix-11">
          <mxGeometry relative="1" as="geometry" />
        </mxCell>
        <mxCell id="0LGYDg_hTQESnCaPoSix-13" value="" style="edgeStyle=orthogonalEdgeStyle;rounded=0;orthogonalLoop=1;jettySize=auto;html=1;" edge="1" parent="0LGYDg_hTQESnCaPoSix-2" source="0LGYDg_hTQESnCaPoSix-15" target="0LGYDg_hTQESnCaPoSix-10">
          <mxGeometry relative="1" as="geometry" />
        </mxCell>
        <mxCell id="0LGYDg_hTQESnCaPoSix-14" value="" style="edgeStyle=orthogonalEdgeStyle;rounded=0;orthogonalLoop=1;jettySize=auto;html=1;" edge="1" parent="0LGYDg_hTQESnCaPoSix-2" source="0LGYDg_hTQESnCaPoSix-15" target="0LGYDg_hTQESnCaPoSix-17">
          <mxGeometry relative="1" as="geometry" />
        </mxCell>
        <mxCell id="0LGYDg_hTQESnCaPoSix-15" value="Identify target server" style="rounded=0;whiteSpace=wrap;html=1;" vertex="1" parent="0LGYDg_hTQESnCaPoSix-2">
          <mxGeometry x="408" y="65" width="120" height="60" as="geometry" />
        </mxCell>
        <mxCell id="0LGYDg_hTQESnCaPoSix-16" value="Export tracks" style="rounded=0;whiteSpace=wrap;html=1;" vertex="1" parent="0LGYDg_hTQESnCaPoSix-2">
          <mxGeometry x="408" y="250" width="120" height="60" as="geometry" />
        </mxCell>
        <mxCell id="0LGYDg_hTQESnCaPoSix-17" value="Identify server vulnerabilities" style="rounded=0;whiteSpace=wrap;html=1;" vertex="1" parent="0LGYDg_hTQESnCaPoSix-2">
          <mxGeometry x="588" y="65" width="120" height="60" as="geometry" />
        </mxCell>
        <mxCell id="0LGYDg_hTQESnCaPoSix-18" style="edgeStyle=orthogonalEdgeStyle;rounded=0;orthogonalLoop=1;jettySize=auto;html=1;entryX=0.5;entryY=0;entryDx=0;entryDy=0;" edge="1" parent="1" source="0LGYDg_hTQESnCaPoSix-19" target="0LGYDg_hTQESnCaPoSix-25">
          <mxGeometry relative="1" as="geometry" />
        </mxCell>
        <mxCell id="0LGYDg_hTQESnCaPoSix-19" value="DOUBT RESOLUTION" style="swimlane;whiteSpace=wrap;html=1;" vertex="1" parent="1">
          <mxGeometry x="40" y="530" width="748" height="180" as="geometry" />
        </mxCell>
        <mxCell id="0LGYDg_hTQESnCaPoSix-20" value="Known issue ?" style="rhombus;whiteSpace=wrap;html=1;" vertex="1" parent="0LGYDg_hTQESnCaPoSix-19">
          <mxGeometry x="58" y="60" width="92" height="90" as="geometry" />
        </mxCell>
        <mxCell id="0LGYDg_hTQESnCaPoSix-21" value="Previous&lt;br&gt;case" style="rhombus;whiteSpace=wrap;html=1;" vertex="1" parent="0LGYDg_hTQESnCaPoSix-19">
          <mxGeometry x="214" y="60" width="92" height="90" as="geometry" />
        </mxCell>
        <mxCell id="0LGYDg_hTQESnCaPoSix-22" value="&lt;div&gt;Actions in&lt;br&gt;progress&lt;br&gt;&lt;/div&gt;" style="rhombus;whiteSpace=wrap;html=1;" vertex="1" parent="0LGYDg_hTQESnCaPoSix-19">
          <mxGeometry x="430" y="52.5" width="110" height="105" as="geometry" />
        </mxCell>
        <mxCell id="0LGYDg_hTQESnCaPoSix-23" style="edgeStyle=orthogonalEdgeStyle;rounded=0;orthogonalLoop=1;jettySize=auto;html=1;entryX=1;entryY=0.5;entryDx=0;entryDy=0;" edge="1" parent="0LGYDg_hTQESnCaPoSix-19" source="0LGYDg_hTQESnCaPoSix-24" target="0LGYDg_hTQESnCaPoSix-22">
          <mxGeometry relative="1" as="geometry" />
        </mxCell>
        <mxCell id="0LGYDg_hTQESnCaPoSix-24" value="&lt;div&gt;- Sale period,&lt;/div&gt;&lt;div&gt;- Load test&lt;/div&gt;" style="shape=document;whiteSpace=wrap;html=1;boundedLbl=1;" vertex="1" parent="0LGYDg_hTQESnCaPoSix-19">
          <mxGeometry x="590" y="65" width="120" height="80" as="geometry" />
        </mxCell>
        <mxCell id="0LGYDg_hTQESnCaPoSix-25" value="ACTIONS / RECOMMENDATIONS" style="swimlane;whiteSpace=wrap;html=1;" vertex="1" parent="1">
          <mxGeometry x="40" y="760" width="748" height="240" as="geometry" />
        </mxCell>
        <mxCell id="0LGYDg_hTQESnCaPoSix-26" value="" style="edgeStyle=orthogonalEdgeStyle;rounded=0;orthogonalLoop=1;jettySize=auto;html=1;" edge="1" parent="0LGYDg_hTQESnCaPoSix-25" source="0LGYDg_hTQESnCaPoSix-27" target="0LGYDg_hTQESnCaPoSix-30">
          <mxGeometry relative="1" as="geometry" />
        </mxCell>
        <mxCell id="0LGYDg_hTQESnCaPoSix-27" value="Notify link providers" style="shape=process;whiteSpace=wrap;html=1;backgroundOutline=1;" vertex="1" parent="0LGYDg_hTQESnCaPoSix-25">
          <mxGeometry x="22" y="50" width="120" height="60" as="geometry" />
        </mxCell>
        <mxCell id="0LGYDg_hTQESnCaPoSix-28" style="edgeStyle=orthogonalEdgeStyle;rounded=0;orthogonalLoop=1;jettySize=auto;html=1;entryX=1;entryY=0.5;entryDx=0;entryDy=0;" edge="1" parent="0LGYDg_hTQESnCaPoSix-25" source="0LGYDg_hTQESnCaPoSix-29" target="0LGYDg_hTQESnCaPoSix-27">
          <mxGeometry relative="1" as="geometry" />
        </mxCell>
        <mxCell id="0LGYDg_hTQESnCaPoSix-29" value="- Beware of SaaS / IaaS with costs based on BP usage." style="shape=document;whiteSpace=wrap;html=1;boundedLbl=1;" vertex="1" parent="0LGYDg_hTQESnCaPoSix-25">
          <mxGeometry x="186" y="40" width="120" height="80" as="geometry" />
        </mxCell>
        <mxCell id="0LGYDg_hTQESnCaPoSix-30" value="Activate anti-DDoS protection" style="shape=process;whiteSpace=wrap;html=1;backgroundOutline=1;" vertex="1" parent="0LGYDg_hTQESnCaPoSix-25">
          <mxGeometry x="22" y="150" width="120" height="60" as="geometry" />
        </mxCell>
        <mxCell id="0LGYDg_hTQESnCaPoSix-31" value="Blocking identified IPs" style="shape=process;whiteSpace=wrap;html=1;backgroundOutline=1;" vertex="1" parent="0LGYDg_hTQESnCaPoSix-25">
          <mxGeometry x="350" y="62.5" width="120" height="60" as="geometry" />
        </mxCell>
        <mxCell id="0LGYDg_hTQESnCaPoSix-32" style="edgeStyle=orthogonalEdgeStyle;rounded=0;orthogonalLoop=1;jettySize=auto;html=1;entryX=1;entryY=0.5;entryDx=0;entryDy=0;" edge="1" parent="0LGYDg_hTQESnCaPoSix-25" source="0LGYDg_hTQESnCaPoSix-33" target="0LGYDg_hTQESnCaPoSix-31">
          <mxGeometry relative="1" as="geometry" />
        </mxCell>
        <mxCell id="0LGYDg_hTQESnCaPoSix-33" value="&lt;div&gt;- FW blocking (perimeter and local)&lt;/div&gt;&lt;div&gt;- Ban : IP or IP range or region&amp;nbsp;&lt;/div&gt;&lt;div&gt;- Packet drop&lt;br&gt;- Contact abuse email&lt;/div&gt;" style="shape=document;whiteSpace=wrap;html=1;boundedLbl=1;" vertex="1" parent="0LGYDg_hTQESnCaPoSix-25">
          <mxGeometry x="520" y="35" width="180" height="115" as="geometry" />
        </mxCell>
        <mxCell id="0LGYDg_hTQESnCaPoSix-34" value="Playbook created by Augmented Security Force - licence&amp;nbsp;CC0 1.0 UNIVERSAL" style="text;html=1;align=center;verticalAlign=middle;whiteSpace=wrap;rounded=0;" vertex="1" parent="1">
          <mxGeometry x="40" y="1000" width="750" height="30" as="geometry" />
        </mxCell>
        <mxCell id="0LGYDg_hTQESnCaPoSix-35" value="Playbook created by Augmented Security Force - licence&amp;nbsp;CC0 1.0 UNIVERSAL" style="text;html=1;align=center;verticalAlign=middle;whiteSpace=wrap;rounded=0;" vertex="1" parent="1">
          <mxGeometry x="40" y="490" width="350" height="30" as="geometry" />
        </mxCell>
        <mxCell id="0LGYDg_hTQESnCaPoSix-36" value="Playbook created by Augmented Security Force - licence&amp;nbsp;CC0 1.0 UNIVERSAL" style="text;html=1;align=center;verticalAlign=middle;whiteSpace=wrap;rounded=0;" vertex="1" parent="1">
          <mxGeometry x="40" y="720" width="350" height="30" as="geometry" />
        </mxCell>
        <mxCell id="0LGYDg_hTQESnCaPoSix-37" value="&lt;h1 style=&quot;margin-top: 0px;&quot;&gt;Denial of Service&lt;/h1&gt;&lt;p style=&quot;text-align: justify;&quot;&gt;A &#39;Denial of Service&#39; (DoS) or &#39;Distributed Denial of Service&#39; (DDoS) alert is a critical notification generated by security systems when they detect an attempt to saturate or make an online service, such as a website or application, unavailable by overwhelming the target server with malicious requests or excessive traffic.&lt;/p&gt;" style="text;html=1;whiteSpace=wrap;overflow=hidden;rounded=0;" vertex="1" parent="1">
          <mxGeometry x="42" y="30" width="750" height="90" as="geometry" />
        </mxCell>
      </root>
    </mxGraphModel>
  </diagram>
</mxfile>
